<?xml version="1.0" standalone="no"?><!DOCTYPE svg PUBLIC "-//W3C//DTD SVG 1.1//EN" "http://www.w3.org/Graphics/SVG/1.1/DTD/svg11.dtd"><svg t="1580285748546" class="icon" viewBox="0 0 1024 1024" version="1.1" xmlns="http://www.w3.org/2000/svg" p-id="2093" xmlns:xlink="http://www.w3.org/1999/xlink" width="200" height="200"><defs><style type="text/css"></style></defs><path d="M586 950.7c-10.5 0-21-3.7-29.4-11.2L189 610.6c-26.3-23.6-41.9-56-43.9-91.3s9.9-69.2 33.5-95.6c3.2-3.6 6.7-7.1 10.3-10.3L556.6 84.5c18.1-16.2 46-14.7 62.3 3.5 16.2 18.2 14.7 46-3.5 62.3L247.8 479.1c-1.2 1-2.3 2.2-3.4 3.4-16.2 18.1-14.7 46.1 3.4 62.3l367.6 328.9c18.2 16.2 19.7 44.1 3.5 62.3-8.8 9.8-20.8 14.7-32.9 14.7z" p-id="2094"></path></svg>