<?xml version="1.0" standalone="no"?><!DOCTYPE svg PUBLIC "-//W3C//DTD SVG 1.1//EN" "http://www.w3.org/Graphics/SVG/1.1/DTD/svg11.dtd"><svg t="1580206777764" class="icon" viewBox="0 0 1024 1024" version="1.1" xmlns="http://www.w3.org/2000/svg" p-id="2246" xmlns:xlink="http://www.w3.org/1999/xlink" width="200" height="200"><defs><style type="text/css"></style></defs><path d="M510.122 488.761c30.986 0 57.395-10.915 79.225-32.746 21.832-21.832 32.746-48.239 32.746-79.225 0-30.986-10.915-57.395-32.746-79.225-21.832-21.832-48.239-32.746-79.225-32.746-30.986 0-57.395 10.915-79.225 32.746-21.832 21.832-32.746 48.239-32.746 79.225 0 30.986 10.915 57.395 32.746 79.225 21.832 21.832 48.239 32.746 79.225 32.746v0 0zM510.122 62c87.324 0 161.619 30.634 222.887 91.901s91.901 135.563 91.901 222.887c0 43.662-10.915 93.662-32.746 150-21.832 56.339-48.239 109.155-79.225 158.451-30.986 49.297-61.619 95.422-91.901 138.381-30.282 42.958-55.986 77.112-77.112 102.465l-33.802 35.916c-8.451-9.86-19.718-22.887-33.803-39.084-14.084-16.197-39.437-48.592-76.057-97.183-36.62-48.592-68.662-95.774-96.127-141.549-27.465-45.775-52.464-97.535-75-155.282-22.536-57.747-33.803-108.451-33.803-152.112 0-87.324 30.634-161.619 91.901-222.887 61.268-61.267 135.563-91.901 222.887-91.901v0 0z" p-id="2247"></path></svg>